<?xml version="1.0" encoding="UTF-8"?><svg xmlns="http://www.w3.org/2000/svg" xmlns:xlink="http://www.w3.org/1999/xlink" zoomAndPan="magnify" viewBox="25 125 350 150" preserveAspectRatio="xMidYMid meet" version="1.2"><defs><g /><clipPath xml:id="clip1" id="clip1"><path d="M 109.339844 125.691406 L 278.089844 125.691406 L 278.089844 274.941406 L 109.339844 274.941406 Z M 109.339844 125.691406 " /></clipPath><clipPath xml:id="clip2" id="clip2"><path d="M 63 164 L 106 164 L 106 215 L 63 215 Z M 63 164 " /></clipPath><clipPath xml:id="clip3" id="clip3"><path d="M 62.675781 160.304688 L 119.835938 168.542969 L 111.0625 229.414062 L 53.902344 221.171875 Z M 62.675781 160.304688 " /></clipPath><clipPath xml:id="clip4" id="clip4"><path d="M 62.675781 160.304688 L 119.835938 168.542969 L 111.0625 229.414062 L 53.902344 221.171875 Z M 62.675781 160.304688 " /></clipPath><clipPath xml:id="clip5" id="clip5"><path d="M 77 191 L 110 191 L 110 227 L 77 227 Z M 77 191 " /></clipPath><clipPath xml:id="clip6" id="clip6"><path d="M 62.675781 160.304688 L 119.835938 168.542969 L 111.0625 229.414062 L 53.902344 221.171875 Z M 62.675781 160.304688 " /></clipPath><clipPath xml:id="clip7" id="clip7"><path d="M 62.675781 160.304688 L 119.835938 168.542969 L 111.0625 229.414062 L 53.902344 221.171875 Z M 62.675781 160.304688 " /></clipPath><clipPath xml:id="clip8" id="clip8"><path d="M 67 163 L 112 163 L 112 213 L 67 213 Z M 67 163 " /></clipPath><clipPath xml:id="clip9" id="clip9"><path d="M 62.675781 160.304688 L 119.835938 168.542969 L 111.0625 229.414062 L 53.902344 221.171875 Z M 62.675781 160.304688 " /></clipPath><clipPath xml:id="clip10" id="clip10"><path d="M 62.675781 160.304688 L 119.835938 168.542969 L 111.0625 229.414062 L 53.902344 221.171875 Z M 62.675781 160.304688 " /></clipPath><clipPath xml:id="clip11" id="clip11"><path d="M 79 186 L 113 186 L 113 225 L 79 225 Z M 79 186 " /></clipPath><clipPath xml:id="clip12" id="clip12"><path d="M 62.675781 160.304688 L 119.835938 168.542969 L 111.0625 229.414062 L 53.902344 221.171875 Z M 62.675781 160.304688 " /></clipPath><clipPath xml:id="clip13" id="clip13"><path d="M 62.675781 160.304688 L 119.835938 168.542969 L 111.0625 229.414062 L 53.902344 221.171875 Z M 62.675781 160.304688 " /></clipPath></defs><g xml:id="surface1" id="surface1"><g style="fill:rgb(41.178894%,74.508667%,15.689087%);fill-opacity:1;"><g transform="translate(15.569189, 274.314702)"><path style="stroke:none;" d="M 12.03125 0 L 12.03125 -111.375 L 42.125 -111.375 L 42.125 -24.296875 L 85.015625 -24.296875 L 85.015625 0 Z M 12.03125 0 " /></g></g><g style="fill:rgb(41.178894%,74.508667%,15.689087%);fill-opacity:1;"><g transform="translate(106.366058, 274.314702)"><path style="stroke:none;" d="" /></g></g><g style="fill:rgb(41.178894%,74.508667%,15.689087%);fill-opacity:1;"><g transform="translate(146.892537, 274.314702)"><path style="stroke:none;" d="" /></g></g><g style="fill:rgb(41.178894%,74.508667%,15.689087%);fill-opacity:1;"><g transform="translate(187.419016, 274.314702)"><path style="stroke:none;" d="" /></g></g><g style="fill:rgb(41.178894%,74.508667%,15.689087%);fill-opacity:1;"><g transform="translate(227.945495, 274.314702)"><path style="stroke:none;" d="" /></g></g><g style="fill:rgb(41.178894%,74.508667%,15.689087%);fill-opacity:1;"><g transform="translate(268.47152, 274.314702)"><path style="stroke:none;" d="M 51.796875 -70.078125 L 71 -111.375 L 103.609375 -111.375 L 66.96875 -43.5 L 66.96875 0 L 36.640625 0 L 36.640625 -42.578125 L 0 -111.375 L 32.75 -111.375 Z M 51.796875 -70.078125 " /></g></g><g clip-rule="nonzero" clip-path="url(#clip1)"><path style=" stroke:none;fill-rule:nonzero;fill:rgb(25.878906%,53.729248%,75.689697%);fill-opacity:1;" d="M 268.117188 205.289062 C 274.003906 205.289062 278.039062 209.199219 278.039062 215.238281 C 278.039062 220.578125 273.164062 225.191406 268.117188 225.191406 L 213.554688 225.191406 C 206.136719 225.191406 203.636719 221.144531 203.636719 215.238281 C 203.636719 212.429688 206.769531 207.816406 208.59375 205.289062 L 248.277344 145.589844 L 213.554688 145.589844 C 207.960938 145.589844 203.636719 141.394531 203.636719 135.640625 C 203.636719 130.300781 208.242188 125.691406 213.554688 125.691406 L 268.117188 125.691406 C 276.246094 125.691406 278.039062 130.726562 278.039062 135.640625 C 278.039062 138.730469 274.886719 143.195312 273.078125 145.589844 L 233.394531 205.289062 Z M 188.753906 230.164062 C 191.894531 230.164062 193.714844 231.921875 193.714844 235.140625 C 193.714844 237.992188 191.441406 240.113281 188.753906 240.113281 L 158.992188 240.113281 C 155.035156 240.113281 154.03125 238.289062 154.03125 235.140625 C 154.03125 233.644531 155.703125 231.511719 156.675781 230.164062 L 178.835938 200.316406 L 158.992188 200.316406 C 156.007812 200.316406 154.03125 198.40625 154.03125 195.339844 C 154.03125 192.488281 156.15625 190.363281 158.992188 190.363281 L 188.753906 190.363281 C 193.089844 190.363281 193.714844 192.71875 193.714844 195.339844 C 193.714844 196.988281 192.039062 199.703125 191.070312 200.976562 L 168.914062 230.164062 Z M 144.113281 264.988281 C 147.253906 264.988281 149.074219 266.746094 149.074219 269.964844 C 149.074219 272.816406 146.800781 274.941406 144.113281 274.941406 L 114.351562 274.941406 C 110.394531 274.941406 109.390625 273.113281 109.390625 269.964844 C 109.390625 268.46875 111.0625 266.339844 112.035156 264.988281 L 134.191406 235.140625 L 114.351562 235.140625 C 111.367188 235.140625 109.390625 233.230469 109.390625 230.164062 C 109.390625 227.320312 111.515625 225.191406 114.351562 225.191406 L 144.113281 225.191406 C 148.449219 225.191406 149.074219 227.542969 149.074219 230.164062 C 149.074219 231.8125 147.394531 234.527344 146.429688 235.800781 L 124.273438 264.988281 Z M 144.113281 264.988281 " /></g><g clip-rule="nonzero" clip-path="url(#clip2)"><g clip-rule="nonzero" clip-path="url(#clip3)"><g clip-rule="nonzero" clip-path="url(#clip4)"><path style=" stroke:none;fill-rule:nonzero;fill:rgb(41.178894%,74.508667%,15.689087%);fill-opacity:1;" d="M 65.285156 166.246094 C 65.699219 165.976562 68.597656 164.105469 68.597656 164.105469 C 68.597656 164.105469 103.449219 183.484375 105.902344 187.238281 C 107.195312 189.21875 87.066406 194.75 87.066406 194.75 C 87.066406 194.75 78.476562 207.425781 73.484375 212.046875 C 72.382812 213.066406 69.894531 214.523438 69.46875 214.433594 C 65.039062 213.492188 61.546875 168.660156 65.285156 166.246094 Z M 65.285156 166.246094 " /></g></g></g><g clip-rule="nonzero" clip-path="url(#clip5)"><g clip-rule="nonzero" clip-path="url(#clip6)"><g clip-rule="nonzero" clip-path="url(#clip7)"><path style=" stroke:none;fill-rule:nonzero;fill:rgb(41.178894%,74.508667%,15.689087%);fill-opacity:1;" d="M 95.71875 226.304688 C 100.828125 227.921875 108.265625 219.941406 109.242188 217.5625 C 110.21875 215.1875 91.210938 191.15625 91.210938 191.15625 L 77.691406 199.894531 C 77.6875 199.894531 90.613281 224.683594 95.71875 226.304688 Z M 95.71875 226.304688 " /></g></g></g><g clip-rule="nonzero" clip-path="url(#clip8)"><g clip-rule="nonzero" clip-path="url(#clip9)"><g clip-rule="nonzero" clip-path="url(#clip10)"><path style=" stroke:none;fill-rule:nonzero;fill:rgb(25.878906%,53.729248%,75.689697%);fill-opacity:1;" d="M 68.597656 164.105469 C 72.332031 161.6875 108.8125 182.996094 111.570312 187.21875 C 113.035156 189.460938 87.066406 194.75 87.066406 194.75 C 87.066406 194.75 74.859375 212.730469 72.78125 212.292969 C 68.351562 211.351562 64.859375 166.519531 68.597656 164.105469 Z M 68.597656 164.105469 " /></g></g></g><g clip-rule="nonzero" clip-path="url(#clip11)"><g clip-rule="nonzero" clip-path="url(#clip12)"><g clip-rule="nonzero" clip-path="url(#clip13)"><path style=" stroke:none;fill-rule:nonzero;fill:rgb(25.878906%,53.729248%,75.689697%);fill-opacity:1;" d="M 98.945312 224.023438 C 104.21875 225.902344 111.546875 217.753906 112.464844 215.285156 C 113.382812 212.816406 92.753906 186.308594 92.753906 186.308594 L 79.234375 195.046875 C 79.234375 195.046875 93.667969 222.148438 98.945312 224.023438 Z M 98.945312 224.023438 " /></g></g></g></g></svg>