<?xml version="1.0" encoding="utf-8"?>
<!-- Generator: Adobe Illustrator 19.0.0, SVG Export Plug-In . SVG Version: 6.00 Build 0)  -->
<svg version="1.1" id="Layer_1" xmlns="http://www.w3.org/2000/svg" xmlns:xlink="http://www.w3.org/1999/xlink" x="0px" y="0px"
	 viewBox="0 0 500 500" style="enable-background:new 0 0 500 500;" xml:space="preserve">
<style type="text/css">
	.st0{fill:#333366;}
</style>
<g id="XMLID_1_">
	<path id="XMLID_5_" class="st0" d="M138.5,261.7h-5.6V278h-6.1v-44.6h11.6c10.8,0,17.4,4.4,17.4,13.8
		C155.8,257.6,148.6,261.7,138.5,261.7z M139.1,238.2h-6.1v18.6h6.1c5.9,0,10.2-1.9,10.2-9.5C149.3,240.6,145,238.2,139.1,238.2z"/>
	<path id="XMLID_8_" class="st0" d="M138.5,261.7v-0.9h-6.5v16.4h-4.4v-42.9h10.8c2.6,0,5,0.3,7.1,0.8c1.5,0.4,2.9,1,4.1,1.6
		c0.9,0.5,1.6,1.1,2.3,1.8c1,1,1.8,2.2,2.3,3.7c0.5,1.4,0.8,3.1,0.8,5c0,2.5-0.4,4.6-1.2,6.3c-0.6,1.3-1.4,2.4-2.3,3.3
		c-0.7,0.7-1.5,1.3-2.4,1.8c-1.4,0.8-2.9,1.3-4.7,1.7c-1.8,0.4-3.7,0.5-5.8,0.5V261.7v0.9c2.6,0,5-0.3,7.2-0.8
		c1.6-0.4,3.1-1,4.5-1.8c1-0.6,1.9-1.3,2.7-2.1c1.2-1.2,2.2-2.7,2.8-4.5c0.6-1.8,1-3.8,1-6.1c0-2.4-0.4-4.6-1.3-6.5
		c-0.6-1.4-1.5-2.6-2.6-3.7c-0.8-0.8-1.7-1.4-2.7-2c-1.5-0.9-3.3-1.5-5.2-1.9c-2-0.4-4.1-0.6-6.4-0.6h-12.5v46.3h7.9v-16.4h4.8
		V261.7z M139.1,238.2v-0.9h-7v20.3h7c1.5,0,3-0.1,4.3-0.4c1-0.2,1.9-0.6,2.8-1.1c0.6-0.4,1.2-0.8,1.7-1.4c0.8-0.8,1.3-1.9,1.7-3.1
		c0.4-1.2,0.6-2.7,0.6-4.4c0-1.8-0.3-3.3-0.8-4.6c-0.4-1-1-1.8-1.7-2.5c-0.5-0.5-1.1-1-1.7-1.3c-1-0.6-2-0.9-3.2-1.2
		c-1.2-0.2-2.4-0.4-3.7-0.4V238.2v0.9c1.4,0,2.7,0.1,3.9,0.4c0.9,0.2,1.6,0.5,2.3,1c0.5,0.3,0.9,0.7,1.3,1.1c0.6,0.6,1,1.4,1.4,2.3
		c0.3,0.9,0.5,2.1,0.5,3.4c0,1.8-0.3,3.3-0.7,4.4c-0.3,0.8-0.8,1.5-1.3,2c-0.4,0.4-0.8,0.7-1.4,1c-0.8,0.4-1.7,0.7-2.7,0.9
		c-1,0.2-2.1,0.3-3.3,0.3h-5.3v-16.8h5.3V238.2z"/>
	<path id="XMLID_9_" class="st0" d="M163.1,278v-34.1h5.2l0.7,6.5c1.9-4.8,4.9-7.3,8.9-7.3c1.1,0,2.3,0.1,3.4,0.4l-1.1,5.8
		c-1-0.3-1.7-0.4-3-0.4c-4.3,0-7,4.3-8.2,9.1v20H163.1z"/>
	<path id="XMLID_10_" class="st0" d="M163.1,278h0.9v-33.2h3.5l1,9.2l1.3-3.2c0.5-1.2,1-2.2,1.6-3c0.4-0.6,0.9-1.2,1.4-1.7
		c0.7-0.7,1.5-1.2,2.4-1.6c0.9-0.3,1.8-0.5,2.8-0.5c0.5,0,1.1,0,1.6,0.1c0.5,0.1,1.1,0.2,1.5,0.3l0.2-0.8l-0.8-0.2l-1.1,5.8l0.8,0.2
		l0.2-0.8c-0.5-0.1-1-0.2-1.5-0.3c-0.5-0.1-1-0.1-1.7-0.1c-0.6,0-1.2,0.1-1.7,0.2c-1,0.3-1.9,0.7-2.6,1.3c-1.2,0.9-2.1,2.2-2.9,3.6
		c-0.8,1.4-1.3,3-1.7,4.6l0,0.1v19.2h-5.1V278h0.9H163.1v0.9h6.8V258H169l0.8,0.2c0.3-1.1,0.7-2.2,1.1-3.3c0.3-0.8,0.7-1.5,1.2-2.1
		c0.7-0.9,1.4-1.7,2.2-2.2c0.4-0.3,0.9-0.5,1.3-0.6c0.5-0.1,0.9-0.2,1.5-0.2c0.6,0,1,0,1.4,0.1c0.4,0.1,0.8,0.1,1.3,0.3l0.9,0.2
		l1.4-7.5l-0.8-0.2c-0.6-0.1-1.2-0.2-1.8-0.3c-0.6-0.1-1.2-0.1-1.8-0.1c-1.1,0-2.1,0.2-3.1,0.5c-0.7,0.3-1.4,0.6-2.1,1.1
		c-1,0.7-1.8,1.5-2.6,2.6c-0.8,1.1-1.4,2.3-2,3.7l0.8,0.3l0.9-0.1l-0.8-7.3h-6.8v35.8h0.9V278z"/>
	<path id="XMLID_13_" class="st0" d="M198.7,242.4c9.7,0,15.1,7,15.1,17.8c0,10.5-5.6,17.9-15.2,17.9c-9.7,0-15.2-7-15.2-17.8
		C183.5,249.7,189,242.4,198.7,242.4z M198.7,247.2c-5.7,0-8.9,4.1-8.9,13.1c0,8.9,3.1,13,8.8,13c5.7,0,8.8-4.1,8.8-13.1
		C207.5,251.3,204.4,247.2,198.7,247.2z"/>
	<path id="XMLID_16_" class="st0" d="M198.7,242.4v0.9c2.3,0,4.4,0.4,6.1,1.2c1.3,0.6,2.5,1.4,3.5,2.3c1.5,1.4,2.7,3.3,3.5,5.6
		c0.8,2.3,1.2,4.9,1.2,7.9c0,2.6-0.3,4.9-1,7c-0.5,1.6-1.1,3-1.9,4.2c-1.2,1.8-2.8,3.3-4.7,4.3c-1.9,1-4.1,1.5-6.7,1.5
		c-2.3,0-4.4-0.4-6.1-1.2c-1.3-0.6-2.5-1.4-3.5-2.3c-1.5-1.4-2.7-3.3-3.5-5.6c-0.8-2.3-1.2-4.9-1.2-7.9c0-2.6,0.3-4.9,1-7
		c0.5-1.6,1.1-3,2-4.2c1.2-1.8,2.8-3.3,4.7-4.3c1.9-1,4.2-1.5,6.8-1.5V242.4v-0.9c-2.5,0-4.8,0.5-6.8,1.4c-1.5,0.7-2.8,1.6-4,2.7
		c-1.7,1.7-3.1,3.8-4,6.3c-0.9,2.5-1.3,5.3-1.3,8.3c0,2.8,0.4,5.3,1,7.6c0.5,1.7,1.2,3.2,2.1,4.6c1.4,2,3.2,3.7,5.3,4.8
		c2.2,1.1,4.7,1.7,7.6,1.7c2.5,0,4.8-0.5,6.8-1.4c1.5-0.7,2.8-1.6,4-2.7c1.7-1.7,3.1-3.8,3.9-6.3c0.9-2.5,1.3-5.3,1.3-8.3
		c0-2.8-0.3-5.3-1-7.6c-0.5-1.7-1.2-3.2-2.1-4.6c-1.3-2-3.1-3.7-5.3-4.8c-2.2-1.1-4.7-1.7-7.5-1.7V242.4z M198.7,247.2v-0.9
		c-0.8,0-1.5,0.1-2.2,0.2c-1.2,0.3-2.3,0.7-3.3,1.5c-0.7,0.5-1.3,1.2-1.9,2c-0.8,1.2-1.4,2.6-1.8,4.3c-0.4,1.7-0.6,3.7-0.6,5.9
		c0,2.3,0.2,4.3,0.6,6c0.3,1.3,0.7,2.4,1.2,3.4c0.4,0.7,0.9,1.4,1.4,2c0.8,0.8,1.8,1.5,2.8,1.9c1.1,0.4,2.3,0.6,3.6,0.6
		c0.8,0,1.5-0.1,2.2-0.2c1.2-0.3,2.3-0.7,3.3-1.5c0.7-0.5,1.3-1.2,1.9-2c0.8-1.2,1.4-2.6,1.8-4.3c0.4-1.7,0.6-3.7,0.6-5.9
		c0-2.3-0.2-4.3-0.6-6c-0.3-1.3-0.7-2.4-1.2-3.4c-0.4-0.7-0.9-1.4-1.4-2c-0.8-0.8-1.8-1.5-2.8-1.9c-1.1-0.4-2.3-0.6-3.5-0.6V247.2
		v0.9c0.7,0,1.3,0.1,1.8,0.2c1,0.2,1.8,0.6,2.5,1.1c0.5,0.4,1,0.9,1.5,1.6c0.6,1,1.2,2.2,1.5,3.7c0.3,1.5,0.5,3.4,0.5,5.5
		c0,2.2-0.2,4.1-0.6,5.6c-0.3,1.2-0.6,2.2-1.1,3c-0.3,0.6-0.7,1.2-1.1,1.6c-0.6,0.7-1.4,1.2-2.2,1.5c-0.9,0.3-1.8,0.5-2.9,0.5
		c-0.7,0-1.3-0.1-1.8-0.2c-1-0.2-1.8-0.6-2.6-1.1c-0.6-0.4-1-0.9-1.5-1.6c-0.6-1-1.2-2.2-1.5-3.7c-0.4-1.5-0.5-3.4-0.5-5.5
		c0-2.2,0.2-4.1,0.6-5.6c0.3-1.2,0.6-2.2,1.1-3c0.3-0.6,0.7-1.2,1.2-1.6c0.6-0.7,1.4-1.2,2.2-1.5c0.9-0.3,1.8-0.5,2.9-0.5V247.2z"/>
	<path id="XMLID_17_" class="st0" d="M240,275.7c-2.1,1.6-4.8,2.3-7.6,2.3c-6.3,0-9.2-4-9.2-9.9v-20.4h-5.4v-4.5h5.4v-7.7l6-0.7v8.4
		h8.6l-0.7,4.5h-7.9v20.4c0,3.4,1.1,5,4.1,5c1.5,0,2.8-0.5,4.5-1.5L240,275.7z"/>
	<path id="XMLID_18_" class="st0" d="M240,275.7l-0.5-0.7c-0.9,0.7-2,1.2-3.3,1.6c-1.2,0.4-2.5,0.5-3.9,0.5c-1.5,0-2.7-0.2-3.8-0.7
		c-0.8-0.3-1.4-0.7-2-1.2c-0.4-0.4-0.8-0.8-1.1-1.3c-0.5-0.7-0.8-1.6-1.1-2.6c-0.2-1-0.4-2.1-0.4-3.2v-21.3h-5.4V244h5.4v-7.8
		l4.2-0.5v8.3h8.5l-0.4,2.8h-8v21.2c0,0.9,0.1,1.7,0.2,2.4c0.1,0.5,0.3,1,0.6,1.5c0.2,0.3,0.4,0.6,0.7,0.9c0.4,0.4,0.9,0.7,1.5,0.8
		c0.6,0.2,1.2,0.3,1.9,0.3c0.8,0,1.6-0.1,2.5-0.4c0.8-0.3,1.6-0.7,2.5-1.2l-0.5-0.7L237,272l2.3,4.1L240,275.7l-0.5-0.7L240,275.7
		l0.8-0.4l-2.7-4.9l-0.8,0.5c-0.8,0.5-1.5,0.8-2.2,1c-0.7,0.2-1.3,0.3-1.9,0.3c-0.7,0-1.2-0.1-1.6-0.2c-0.3-0.1-0.5-0.3-0.7-0.5
		c-0.1-0.1-0.3-0.3-0.4-0.5c-0.2-0.3-0.3-0.7-0.4-1.2c-0.1-0.5-0.1-1.1-0.1-1.8v-19.5h7.8l1-6.3H230v-8.5l-7.7,0.9v7.6h-5.4v6.3h5.4
		v19.6c0,1.5,0.2,3,0.6,4.3c0.3,1,0.7,1.9,1.3,2.7c0.4,0.6,0.9,1.1,1.4,1.6c0.8,0.7,1.8,1.3,2.9,1.6c1.1,0.4,2.4,0.6,3.8,0.6
		c1.5,0,3-0.2,4.4-0.6c1.4-0.4,2.7-1,3.8-1.9l0.6-0.5l-0.4-0.7L240,275.7z"/>
	<path id="XMLID_21_" class="st0" d="M257.9,242.4c9.7,0,15.1,7,15.1,17.8c0,10.5-5.6,17.9-15.2,17.9c-9.7,0-15.2-7-15.2-17.8
		C242.6,249.7,248.2,242.4,257.9,242.4z M257.9,247.2c-5.7,0-8.9,4.1-8.9,13.1c0,8.9,3.1,13,8.8,13c5.7,0,8.8-4.1,8.8-13.1
		C266.6,251.3,263.5,247.2,257.9,247.2z"/>
	<path id="XMLID_24_" class="st0" d="M257.9,242.4v0.9c2.3,0,4.4,0.4,6.1,1.2c1.3,0.6,2.5,1.4,3.5,2.3c1.5,1.4,2.7,3.3,3.5,5.6
		c0.8,2.3,1.2,4.9,1.2,7.9c0,2.6-0.3,4.9-1,7c-0.5,1.6-1.1,3-1.9,4.2c-1.2,1.8-2.8,3.3-4.7,4.3c-1.9,1-4.1,1.5-6.7,1.5
		c-2.3,0-4.4-0.4-6.1-1.2c-1.3-0.6-2.5-1.4-3.5-2.3c-1.5-1.4-2.7-3.3-3.5-5.6c-0.8-2.3-1.2-4.9-1.2-7.9c0-2.6,0.3-4.9,1-7
		c0.5-1.6,1.1-3,2-4.2c1.2-1.8,2.8-3.3,4.7-4.3c1.9-1,4.2-1.5,6.8-1.5V242.4v-0.9c-2.5,0-4.8,0.5-6.8,1.4c-1.5,0.7-2.8,1.6-4,2.7
		c-1.7,1.7-3.1,3.8-4,6.3c-0.9,2.5-1.3,5.3-1.3,8.3c0,2.8,0.4,5.3,1,7.6c0.5,1.7,1.2,3.2,2.1,4.6c1.4,2,3.2,3.7,5.3,4.8
		c2.2,1.1,4.7,1.7,7.6,1.7c2.5,0,4.8-0.5,6.8-1.4c1.5-0.7,2.8-1.6,4-2.7c1.7-1.7,3.1-3.8,3.9-6.3c0.9-2.5,1.3-5.3,1.3-8.3
		c0-2.8-0.3-5.3-1-7.6c-0.5-1.7-1.2-3.2-2.1-4.6c-1.3-2-3.1-3.7-5.3-4.8c-2.2-1.1-4.7-1.7-7.5-1.7V242.4z M257.9,247.2v-0.9
		c-0.8,0-1.5,0.1-2.2,0.2c-1.2,0.3-2.3,0.7-3.3,1.5c-0.7,0.5-1.3,1.2-1.9,2c-0.8,1.2-1.4,2.6-1.8,4.3c-0.4,1.7-0.6,3.7-0.6,5.9
		c0,2.3,0.2,4.3,0.6,6c0.3,1.3,0.7,2.4,1.2,3.4c0.4,0.7,0.9,1.4,1.4,2c0.8,0.8,1.8,1.5,2.8,1.9c1.1,0.4,2.3,0.6,3.6,0.6
		c0.8,0,1.5-0.1,2.2-0.2c1.2-0.3,2.3-0.7,3.3-1.5c0.7-0.5,1.3-1.2,1.9-2c0.8-1.2,1.4-2.6,1.8-4.3c0.4-1.7,0.6-3.7,0.6-5.9
		c0-2.3-0.2-4.3-0.6-6c-0.3-1.3-0.7-2.4-1.2-3.4c-0.4-0.7-0.9-1.4-1.4-2c-0.8-0.8-1.8-1.5-2.8-1.9c-1.1-0.4-2.3-0.6-3.5-0.6V247.2
		v0.9c0.7,0,1.3,0.1,1.8,0.2c1,0.2,1.8,0.6,2.5,1.1c0.5,0.4,1,0.9,1.5,1.6c0.6,1,1.2,2.2,1.5,3.7c0.3,1.5,0.5,3.4,0.5,5.5
		c0,2.2-0.2,4.1-0.6,5.6c-0.3,1.2-0.6,2.2-1.1,3c-0.3,0.6-0.7,1.2-1.1,1.6c-0.6,0.7-1.4,1.2-2.2,1.5c-0.9,0.3-1.8,0.5-2.9,0.5
		c-0.7,0-1.3-0.1-1.8-0.2c-1-0.2-1.8-0.6-2.6-1.1c-0.6-0.4-1-0.9-1.5-1.6c-0.6-1-1.2-2.2-1.5-3.7c-0.4-1.5-0.5-3.4-0.5-5.5
		c0-2.2,0.2-4.1,0.6-5.6c0.3-1.2,0.6-2.2,1.1-3c0.3-0.6,0.7-1.2,1.2-1.6c0.6-0.7,1.4-1.2,2.2-1.5c0.9-0.3,1.8-0.5,2.9-0.5V247.2z"/>
	<path id="XMLID_25_" class="st0" d="M287.8,278h-6v-34.1h5.1l0.5,4.7c2.8-3.5,6.9-5.4,10.9-5.4c6.6,0,9.3,3.8,9.3,10.1V278h-6
		v-24.4c0-4.1-1.4-5.8-5.3-5.8c-3.7,0-6.7,2.8-8.5,5.5V278z"/>
	<path id="XMLID_26_" class="st0" d="M287.8,278v-0.9h-5.1v-32.4h3.5l0.6,6l1.3-1.7c1.3-1.6,2.9-2.9,4.7-3.8
		c1.8-0.9,3.6-1.3,5.5-1.3c1.6,0,2.9,0.2,3.9,0.6c0.8,0.3,1.5,0.7,2,1.2c0.4,0.4,0.8,0.8,1.1,1.3c0.5,0.7,0.8,1.6,1,2.6
		c0.2,1,0.3,2.2,0.3,3.5v23.9h-4.2v-23.5c0-1.1-0.1-2-0.3-2.8c-0.2-0.6-0.4-1.2-0.7-1.7c-0.3-0.4-0.6-0.7-0.9-1
		c-0.3-0.2-0.6-0.4-0.9-0.5c-0.5-0.2-1-0.4-1.5-0.5c-0.6-0.1-1.2-0.1-1.8-0.1c-1,0-2,0.2-2.9,0.5c-1.4,0.5-2.6,1.3-3.6,2.3
		c-1,0.9-1.9,2-2.6,3.1L287,253v25H287.8v-0.9V278h0.9v-24.7h-0.9l0.7,0.5c0.9-1.3,2-2.6,3.3-3.5c0.7-0.5,1.4-0.9,2.1-1.2
		c0.7-0.3,1.5-0.4,2.3-0.4c0.9,0,1.6,0.1,2.2,0.3c0.4,0.1,0.7,0.3,1,0.6c0.2,0.2,0.4,0.4,0.5,0.6c0.2,0.4,0.4,0.8,0.5,1.4
		c0.1,0.6,0.2,1.3,0.2,2.1v25.3h7.7v-25.6c0-1.6-0.2-3.1-0.6-4.5c-0.3-1-0.7-1.9-1.2-2.7c-0.4-0.6-0.9-1.1-1.4-1.6
		c-0.8-0.7-1.8-1.2-3-1.6c-1.2-0.4-2.5-0.5-3.9-0.5c-2.1,0-4.3,0.5-6.3,1.5c-2,1-3.8,2.4-5.3,4.3l0.7,0.5l0.9-0.1l-0.5-5.4H281v35.8
		h7.7V278H287.8z"/>
	<path id="XMLID_27_" class="st0" d="M354,278l-1.9-22.8c-0.5-6.3-0.7-13.4-0.7-14.8h-0.3l-10,32.9h-5.9l-10.4-32.9h-0.3
		c0,1.5-0.1,9.1-0.6,14.8l-1.7,22.8h-5.8l3.7-44.6h8.3l9.8,32.5h0.3l9.4-32.5h8.3L360,278H354z"/>
	<path id="XMLID_28_" class="st0" d="M354,278l0.9-0.1l-1.9-22.8l0,0c-0.3-3.1-0.4-6.5-0.5-9.2c-0.1-1.4-0.1-2.6-0.1-3.5
		c0-0.5,0-0.9,0-1.2c0-0.3,0-0.6,0-0.8v-0.9h-1.8l-10,32.9h-4.6l-10.4-32.9h-1.8v0.9c0,0.4,0,1.1,0,2.1c-0.1,3-0.2,8.3-0.6,12.6l0,0
		l-1.7,22h-4.1l3.5-42.9h6.8l9.8,32.5h1.5l9.4-32.5h6.9l3.5,42.9h-5V278l0.9-0.1L354,278v0.9h6.9l-3.8-46.3h-9.8l-9.6,33.2l0.8,0.2
		v-0.9h-0.3v0.9l0.8-0.2l-10-33.2h-9.7l-3.8,46.3h7.6l1.8-23.6l0,0c0.2-2.9,0.4-6.2,0.5-9.1c0-1.4,0.1-2.7,0.1-3.7c0-1,0-1.8,0-2.1
		h-0.9v0.9h0.3v-0.9l-0.8,0.3l10.5,33.5h7.2l10.2-33.5l-0.8-0.2v0.9h0.3v-0.9h-0.9c0,0.2,0,0.5,0,0.8c0,2.4,0.2,8.6,0.7,14.1l0,0
		l2,23.6h0.8V278z"/>
	<path id="XMLID_31_" class="st0" d="M392.1,269.6c0,2.7,0.8,3.7,2.5,4.3l-1.4,4.1c-3-0.4-5.2-1.7-6.3-4.8c-2.4,3.2-6,4.8-10.2,4.8
		c-6.9,0-11.1-4.2-11.1-10.5c0-7.1,5.7-11,16-11h4.4v-2.7c0-4.8-2.4-6.6-7.4-6.6c-2.3,0-5.4,0.5-8.9,1.7l-1.6-4.4
		c4.2-1.6,8-2.2,11.4-2.2c8.7,0,12.4,4.2,12.4,11.1V269.6z M386.2,268.8v-8.4h-4.1c-7.3,0-9.8,2.7-9.8,6.8c0,4.2,1.9,6.3,6.1,6.3
		C381.7,273.6,384.2,271.8,386.2,268.8z"/>
	<path id="XMLID_34_" class="st0" d="M392.1,269.6h-0.9c0,0.7,0.1,1.3,0.2,1.9c0.1,0.4,0.2,0.8,0.4,1.2c0.1,0.3,0.3,0.5,0.5,0.7
		c0.3,0.3,0.6,0.6,0.9,0.8c0.4,0.2,0.7,0.4,1.1,0.5l0.3-0.8l-0.8-0.3l-1.4,4.1l0.8,0.3l0.1-0.9c-0.7-0.1-1.4-0.2-1.9-0.4
		c-0.4-0.2-0.8-0.3-1.2-0.6c-0.5-0.3-1-0.7-1.4-1.3c-0.4-0.5-0.7-1.2-1-1.9l-0.5-1.6l-1,1.3c-1.1,1.5-2.5,2.6-4.1,3.3
		c-1.6,0.7-3.4,1.1-5.4,1.1c-1.6,0-3.1-0.2-4.3-0.7c-0.9-0.3-1.8-0.8-2.5-1.4c-1.1-0.8-1.9-1.9-2.5-3.2c-0.6-1.3-0.9-2.8-0.9-4.4
		c0-0.8,0.1-1.6,0.2-2.3c0.3-1.3,0.8-2.3,1.5-3.3c0.6-0.7,1.3-1.4,2.1-1.9c1.3-0.8,2.8-1.5,4.7-1.9c1.9-0.4,4.1-0.7,6.6-0.7h5.3
		v-3.5c0-1.3-0.2-2.4-0.5-3.3c-0.3-0.7-0.6-1.4-1.1-1.9c-0.4-0.4-0.8-0.8-1.2-1c-0.7-0.4-1.5-0.7-2.4-0.9c-0.9-0.2-1.9-0.3-3-0.3
		c-1.2,0-2.6,0.1-4.2,0.4c-1.6,0.3-3.3,0.7-5.1,1.4l0.3,0.8l0.8-0.3l-1.6-4.4l-0.8,0.3l0.3,0.8c4.1-1.5,7.8-2.1,11.1-2.1
		c2.1,0,3.9,0.3,5.3,0.7c1.1,0.4,2,0.8,2.8,1.4c0.6,0.4,1.1,0.9,1.5,1.5c0.6,0.8,1.1,1.8,1.4,2.9c0.3,1.1,0.5,2.4,0.5,3.8v16H392.1
		h0.9v-16c0-1.8-0.2-3.5-0.8-4.9c-0.4-1.1-1-2.1-1.7-3c-0.5-0.7-1.2-1.2-1.9-1.8c-1.1-0.8-2.4-1.3-3.9-1.7c-1.5-0.4-3.2-0.6-5.1-0.6
		c-3.5,0-7.4,0.7-11.7,2.3l-0.8,0.3l2.1,6l0.8-0.3c1.7-0.6,3.3-1,4.8-1.3c1.5-0.3,2.8-0.4,3.8-0.4c1.2,0,2.2,0.1,3,0.3
		c0.6,0.2,1.1,0.4,1.6,0.7c0.3,0.2,0.6,0.5,0.8,0.7c0.3,0.4,0.6,0.9,0.8,1.6c0.2,0.7,0.3,1.5,0.3,2.4v1.8h-3.5c-2.6,0-5,0.3-7.1,0.8
		c-1.6,0.4-2.9,0.9-4.2,1.5c-0.9,0.5-1.7,1.1-2.4,1.7c-1.1,1-1.9,2.1-2.4,3.5c-0.5,1.3-0.8,2.8-0.8,4.4c0,1.7,0.3,3.2,0.8,4.6
		c0.4,1,1,2,1.7,2.8c1,1.3,2.4,2.2,4,2.9c1.6,0.7,3.4,1,5.5,1c2.2,0,4.2-0.4,6.1-1.3c1.8-0.8,3.5-2.1,4.8-3.9l-0.7-0.5l-0.8,0.3
		c0.3,0.8,0.7,1.6,1.1,2.2c0.3,0.5,0.7,0.9,1.2,1.3c0.6,0.5,1.4,1,2.2,1.3c0.8,0.3,1.7,0.5,2.6,0.6l0.7,0.1l1.9-5.6l-0.8-0.3
		c-0.4-0.1-0.7-0.3-0.9-0.5c-0.2-0.1-0.3-0.3-0.4-0.4c-0.1-0.1-0.2-0.2-0.2-0.4c-0.1-0.2-0.2-0.5-0.3-0.9c-0.1-0.4-0.1-0.8-0.1-1.4
		H392.1z M386.2,268.8h0.9v-9.3h-4.9c-1.9,0-3.5,0.2-4.8,0.5c-1,0.3-1.9,0.6-2.6,1c-0.6,0.3-1.1,0.7-1.5,1.2
		c-0.6,0.7-1.1,1.4-1.4,2.3c-0.3,0.8-0.4,1.7-0.4,2.7c0,1.1,0.1,2.1,0.4,3c0.2,0.7,0.5,1.3,0.9,1.8c0.3,0.4,0.6,0.8,1,1.1
		c0.6,0.5,1.3,0.8,2.1,1c0.8,0.2,1.7,0.3,2.6,0.3c0.9,0,1.7-0.1,2.5-0.4c1.2-0.3,2.3-1,3.3-1.8c1-0.8,1.9-1.8,2.6-3l0.1-0.2v-0.3
		H386.2l-0.7-0.5c-0.5,0.7-1,1.3-1.5,1.9c-0.8,0.8-1.6,1.4-2.6,1.8c-0.9,0.4-1.9,0.6-3,0.6c-1,0-1.8-0.1-2.5-0.4
		c-0.5-0.2-0.9-0.4-1.2-0.7c-0.3-0.2-0.5-0.4-0.7-0.7c-0.3-0.4-0.5-0.9-0.7-1.5c-0.2-0.6-0.2-1.3-0.2-2.2c0-0.9,0.1-1.8,0.4-2.5
		c0.2-0.5,0.5-1,0.9-1.4c0.3-0.3,0.7-0.6,1.1-0.8c0.7-0.4,1.5-0.7,2.6-0.9c1.1-0.2,2.3-0.3,3.8-0.3h3.2v7.5H386.2l-0.7-0.5
		L386.2,268.8z"/>
	<path id="XMLID_37_" class="st0" d="M406,236.2c-2.5,0-4.1-1.7-4.1-4.1c0-2.3,1.7-4,4.1-4c2.5,0,4.2,1.7,4.2,4
		C410.2,234.4,408.4,236.2,406,236.2z M403,278v-34.1h6V278H403z"/>
	<path id="XMLID_40_" class="st0" d="M406,236.2v-0.9c-0.5,0-1-0.1-1.4-0.2c-0.6-0.2-1.1-0.6-1.4-1.1c-0.3-0.5-0.5-1.1-0.5-1.8
		c0-0.5,0.1-0.9,0.2-1.3c0.2-0.6,0.6-1,1.1-1.4c0.5-0.3,1.2-0.5,1.9-0.5c0.5,0,1,0.1,1.4,0.2c0.6,0.2,1.1,0.6,1.4,1.1
		c0.3,0.5,0.5,1.1,0.5,1.8c0,0.5-0.1,0.9-0.2,1.3c-0.2,0.6-0.6,1-1.2,1.4c-0.5,0.3-1.2,0.5-1.9,0.5V236.2v0.9c0.7,0,1.4-0.1,2-0.4
		c0.9-0.4,1.7-1,2.2-1.8c0.5-0.8,0.8-1.8,0.8-2.8c0-0.7-0.1-1.3-0.4-1.9c-0.4-0.9-1-1.6-1.8-2.2c-0.8-0.5-1.8-0.8-2.9-0.8
		c-0.7,0-1.4,0.1-2,0.4c-0.9,0.4-1.7,1-2.2,1.8c-0.5,0.8-0.8,1.7-0.8,2.7c0,0.7,0.1,1.3,0.4,1.9c0.4,0.9,1,1.7,1.8,2.2
		c0.8,0.5,1.8,0.8,2.9,0.8V236.2z M403,278h0.9v-33.2h4.2v32.4H403V278h0.9H403v0.9h6.8v-35.8h-7.7v35.8h0.9V278z"/>
	<path id="XMLID_41_" class="st0" d="M431.4,276.9c-1.5,0.7-3.1,1.2-4.9,1.2c-4.1,0-7-2.3-7-8.2v-40.4l6-0.7v41.7
		c0,1.9,0.6,2.7,2.1,2.7c0.8,0,1.6-0.1,2.2-0.4L431.4,276.9z"/>
	<path id="XMLID_42_" class="st0" d="M431.4,276.9l-0.4-0.8c-0.7,0.3-1.4,0.6-2.2,0.8c-0.7,0.2-1.5,0.3-2.3,0.3
		c-0.9,0-1.8-0.1-2.5-0.4c-0.6-0.2-1-0.5-1.5-0.8c-0.3-0.3-0.6-0.6-0.9-1c-0.4-0.6-0.7-1.2-0.9-2.1c-0.2-0.8-0.3-1.8-0.3-3v-39.7
		l4.2-0.5v40.7c0,0.5,0,1,0.1,1.4c0.1,0.3,0.2,0.6,0.4,0.9c0.1,0.2,0.3,0.4,0.5,0.6c0.1,0.1,0.3,0.2,0.4,0.3
		c0.2,0.1,0.5,0.2,0.8,0.3c0.3,0.1,0.5,0.1,0.8,0.1c0.5,0,0.9,0,1.3-0.1c0.4-0.1,0.8-0.2,1.2-0.3l-0.3-0.8l-0.8,0.3l1.6,4.1
		L431.4,276.9l-0.4-0.8L431.4,276.9l0.8-0.3l-1.9-5l-0.8,0.3c-0.3,0.1-0.5,0.2-0.9,0.2c-0.3,0.1-0.6,0.1-1,0.1c-0.3,0-0.5,0-0.7-0.1
		c-0.1,0-0.2-0.1-0.2-0.1c0,0-0.1-0.1-0.1-0.2c-0.1-0.1-0.1-0.3-0.2-0.5c0-0.2-0.1-0.5-0.1-0.9v-42.6l-7.7,0.9v41.2
		c0,1.5,0.2,2.9,0.6,4c0.3,0.9,0.7,1.6,1.1,2.3c0.4,0.5,0.8,0.9,1.2,1.3c0.7,0.5,1.5,0.9,2.3,1.2c0.8,0.2,1.7,0.4,2.7,0.4
		c0.9,0,1.9-0.1,2.7-0.3c0.9-0.2,1.7-0.5,2.5-0.9l0.7-0.3l-0.3-0.7L431.4,276.9z"/>
	<path id="XMLID_45_" class="st0" d="M88.1,221c0,0-17.1-0.6-20.6,18.4v12.9c0,0,0.1,1.4,4,4.2c3.9,2.8,13.9,10.7,16.6,10.7
		s12.7-7.9,16.6-10.7c3.9-2.8,4-4.2,4-4.2v-12.9C105.2,220.5,88.1,221,88.1,221z M99.8,246.4H88.1H76.4v-7
		c2.4-9.4,11.7-9.5,11.7-9.5s9.3,0.1,11.7,9.5V246.4z"/>
	<path id="XMLID_46_" class="st0" d="M88.1,270.1c0,0-2.6-0.3-4.7-1.7c-2.1-1.4-15.9-11.3-15.9-11.3v19.5c0,0,0.1,2.3,2.6,2.3
		c2.5,0,18,0,18,0s15.5,0,18,0c2.5,0,2.6-2.3,2.6-2.3v-19.5c0,0-13.8,9.9-15.9,11.3C90.7,269.8,88.1,270.1,88.1,270.1z"/>
</g>
</svg>
